<?xml version="1.0" standalone="no"?>
<!DOCTYPE svg PUBLIC "-//W3C//DTD SVG 20010904//EN"
 "http://www.w3.org/TR/2001/REC-SVG-20010904/DTD/svg10.dtd">
<svg version="1.0" xmlns="http://www.w3.org/2000/svg"
 width="389.000000pt" height="389.000000pt" viewBox="0 0 389.000000 389.000000"
 preserveAspectRatio="xMidYMid meet">
<metadata>
Created by potrace 1.14, written by Peter Selinger 2001-2017
</metadata>
<g transform="translate(0.000000,389.000000) scale(0.100000,-0.100000)"
fill="#000000" stroke="none">
<path d="M2191 3697 c-8 -10 -7 -14 2 -14 8 0 14 6 14 14 0 7 -1 13 -2 13 -2
0 -8 -6 -14 -13z"/>
<path d="M2104 3687 c-4 -11 -24 -17 -71 -20 -7 0 -13 -3 -13 -7 0 -4 -13 -6
-30 -5 -16 1 -30 -2 -30 -6 0 -4 -9 -6 -20 -4 -11 2 -22 -1 -25 -6 -4 -5 -10
-7 -15 -4 -5 3 -11 1 -15 -5 -4 -6 -11 -8 -16 -5 -5 4 -9 1 -9 -4 0 -6 -3 -10
-7 -9 -14 3 -63 -21 -63 -31 0 -5 -6 -8 -12 -8 -22 2 -98 -37 -98 -50 0 -7 -7
-10 -15 -7 -8 4 -15 2 -15 -3 0 -14 -52 -69 -62 -66 -4 2 -5 -3 -2 -11 3 -8
-5 -21 -18 -30 -12 -9 -18 -16 -13 -16 5 0 0 -7 -11 -15 -11 -8 -14 -14 -6
-15 8 0 6 -8 -8 -22 -15 -16 -17 -24 -8 -30 10 -6 9 -8 -3 -8 -15 0 -17 -5
-21 -50 -1 -11 -6 -20 -11 -20 -4 0 -6 -4 -3 -9 3 -5 -17 -30 -44 -57 -35 -34
-46 -50 -37 -56 8 -5 8 -8 1 -8 -6 0 -17 -13 -24 -29 -6 -16 -18 -32 -26 -35
-8 -3 -14 -12 -14 -21 0 -8 -4 -15 -9 -15 -5 0 -8 -8 -6 -17 2 -10 4 -22 4
-28 1 -5 5 -4 10 3 7 11 9 11 14 -2 3 -8 2 -18 -3 -21 -5 -3 -7 -12 -4 -19 3
-7 -2 -21 -11 -30 -11 -11 -12 -16 -4 -16 7 0 4 -6 -7 -15 -14 -11 -15 -14 -4
-15 9 0 11 -3 5 -8 -5 -4 -11 -12 -12 -19 -12 -59 -12 -73 -1 -79 7 -4 8 -3 4
5 -4 6 -2 19 6 28 11 14 11 16 -1 8 -9 -5 -12 -4 -7 3 4 6 14 8 22 5 11 -4 12
-8 4 -13 -9 -6 -9 -9 -1 -15 9 -5 9 -10 0 -21 -9 -11 -8 -14 2 -14 11 0 11 -2
-1 -10 -8 -5 -10 -10 -4 -10 11 0 11 -46 0 -57 -3 -4 0 -13 7 -21 8 -11 8 -14
0 -9 -6 4 -14 3 -18 -3 -3 -5 0 -10 8 -10 7 0 14 -7 14 -15 0 -10 -6 -14 -16
-10 -14 4 -14 4 -1 -8 17 -14 26 -42 10 -32 -5 3 -10 1 -10 -4 0 -6 5 -11 10
-11 6 0 10 -5 10 -11 0 -5 -4 -8 -8 -5 -5 3 -9 -1 -9 -9 0 -8 5 -11 10 -8 6 4
8 -1 4 -11 -4 -10 -7 -20 -7 -23 0 -3 -6 -2 -13 3 -7 5 -5 2 5 -8 10 -9 14
-18 9 -20 -5 -1 -11 -20 -13 -41 -2 -20 -8 -36 -13 -35 -6 2 -9 7 -7 11 1 5
-2 5 -8 2 -8 -5 -6 -13 6 -26 9 -10 12 -19 7 -19 -6 0 -10 -8 -9 -17 0 -10 -5
-18 -11 -19 -7 -1 -16 -3 -20 -4 -5 -1 -12 -1 -18 0 -5 1 -6 -2 -2 -6 12 -12
38 -14 31 -2 -5 7 -2 8 5 4 9 -6 8 -12 -4 -26 -9 -10 -14 -23 -10 -29 4 -7 0
-8 -11 -4 -14 5 -16 2 -10 -20 5 -22 3 -27 -11 -27 -15 0 -16 -2 -3 -10 11 -7
11 -10 2 -10 -7 0 -10 -6 -7 -12 4 -7 -1 -4 -11 7 -16 19 -16 19 -10 1 4 -12
0 -27 -11 -40 -10 -12 -14 -18 -9 -14 17 14 37 -12 25 -33 -5 -11 -7 -23 -4
-28 8 -15 -6 -42 -19 -34 -6 4 -5 -1 3 -10 9 -12 10 -17 2 -17 -7 0 -10 -4 -7
-9 5 -8 -29 -25 -46 -22 -5 1 -8 -2 -8 -7 0 -7 -27 -21 -82 -41 -16 -6 -28
-15 -28 -20 0 -5 -11 -12 -25 -15 -14 -4 -25 -11 -25 -17 0 -6 -4 -7 -10 -4
-5 3 -10 1 -10 -4 0 -6 -5 -11 -11 -11 -14 0 -129 -89 -154 -120 -11 -13 -28
-31 -37 -39 -10 -9 -18 -19 -18 -23 0 -5 -19 -27 -42 -49 -24 -23 -42 -46 -40
-50 1 -5 -2 -9 -8 -9 -10 0 -80 -64 -80 -73 0 -3 -23 -38 -50 -79 -28 -40 -46
-74 -41 -76 10 -3 -94 -154 -111 -160 -4 -2 -6 -8 -2 -13 3 -5 1 -9 -4 -9 -29
0 -49 -199 -26 -258 26 -65 200 -267 326 -379 63 -56 177 -141 237 -178 60
-36 77 -42 66 -26 -3 5 -1 13 5 16 6 4 31 -14 55 -39 25 -25 66 -56 92 -70
154 -78 419 -154 603 -174 88 -9 379 -8 460 2 370 45 735 206 1025 450 93 79
92 77 81 176 -2 19 -5 35 -6 35 -1 0 -3 8 -5 18 -2 9 -13 33 -24 53 -12 19
-21 44 -21 54 0 10 -4 21 -10 25 -5 3 -7 12 -3 20 3 8 0 15 -7 15 -6 0 -9 4
-5 9 3 5 1 12 -5 16 -6 4 -8 10 -5 14 6 11 -25 38 -50 43 -15 2 -20 11 -20 33
0 17 4 36 10 44 5 8 9 16 8 18 -2 1 -3 4 -2 6 0 1 2 25 4 52 5 56 -28 185 -47
185 -6 0 -9 3 -5 6 3 3 -3 22 -14 41 -11 19 -17 38 -14 43 3 5 1 11 -5 15 -6
4 -7 12 -3 18 4 6 7 21 7 32 0 25 -33 95 -45 95 -5 0 -9 7 -9 15 0 8 -4 15 -8
15 -7 0 -13 33 -16 93 0 15 -5 27 -9 27 -5 0 -6 4 -2 9 8 14 -22 93 -39 103
-9 5 -20 25 -26 46 -7 26 -21 45 -47 62 -21 14 -40 27 -43 31 -10 11 -106 61
-125 65 -11 2 -21 8 -23 14 -2 5 -12 10 -22 10 -21 0 -72 20 -81 33 -3 4 -16
9 -29 12 -31 6 -64 36 -49 45 6 4 10 10 10 14 -1 3 -1 7 0 9 0 1 3 13 6 27 10
50 21 76 58 135 14 22 29 49 34 60 5 11 18 31 30 44 11 13 18 28 14 34 -3 6
-1 7 5 3 7 -4 14 3 18 19 3 14 10 25 15 25 14 0 30 76 26 127 -2 26 -13 68
-24 93 -21 47 -20 75 3 66 7 -3 16 0 20 6 4 6 3 8 -2 5 -6 -3 -15 7 -21 24 -9
24 -9 29 3 29 9 0 13 4 9 10 -3 5 2 18 12 28 20 21 27 42 14 42 -19 0 -27 64
-35 275 -1 44 -6 87 -10 96 -4 9 -6 20 -5 25 1 5 -3 22 -9 37 -7 16 -10 33 -7
37 3 5 -2 13 -11 18 -9 5 -16 13 -16 18 -1 19 -21 53 -28 49 -10 -6 -22 24
-14 36 3 5 0 9 -5 9 -6 0 -11 -6 -11 -12 -1 -8 -6 -6 -14 4 -7 10 -17 14 -21
10 -5 -4 -5 2 -1 12 5 16 4 17 -9 6 -8 -7 -15 -8 -15 -2 0 5 -16 13 -35 16
-26 5 -33 11 -29 24 5 14 2 13 -12 -3 -13 -15 -15 -16 -11 -3 6 17 -17 33 -34
22 -5 -3 -9 0 -9 5 0 6 -8 11 -17 11 -20 1 -53 23 -53 35 0 4 7 2 15 -5 13
-11 18 -11 28 0 9 10 9 11 -1 5 -8 -4 -22 1 -34 12 -12 10 -18 12 -14 5 6 -9
1 -12 -16 -10 -12 2 -29 7 -35 11 -7 5 -17 6 -22 2 -5 -3 -12 -1 -15 4 -4 5
-14 8 -24 7 -9 -2 -22 4 -29 13 -7 9 -13 11 -13 6 0 -6 -9 -11 -20 -11 -22 0
-27 12 -7 19 9 4 9 6 -1 6 -7 1 -15 -5 -18 -12z m-867 -1581 c0 -8 -6 -12 -14
-9 -7 3 -10 9 -7 14 8 14 21 11 21 -5z m1528 -1685 c-4 -9 -8 -29 -10 -46 -2
-16 -3 -36 -4 -42 0 -7 -6 -13 -12 -13 -5 0 -7 4 -4 10 10 17 14 50 6 50 -10
0 -8 41 2 58 12 17 30 3 22 -17z"/>
<path d="M2240 3676 c0 -2 7 -9 15 -16 9 -7 15 -8 15 -2 0 5 -7 12 -15 16 -8
3 -15 4 -15 2z"/>
<path d="M2385 3609 c-3 -4 2 -6 10 -5 21 3 28 13 10 13 -9 0 -18 -4 -20 -8z"/>
<path d="M1270 2310 c0 -5 5 -10 11 -10 5 0 7 5 4 10 -3 6 -8 10 -11 10 -2 0
-4 -4 -4 -10z"/>
<path d="M1175 2170 c-3 -5 -1 -10 4 -10 6 0 11 5 11 10 0 6 -2 10 -4 10 -3 0
-8 -4 -11 -10z"/>
<path d="M1167 2029 c7 -7 15 -10 18 -7 3 3 -2 9 -12 12 -14 6 -15 5 -6 -5z"/>
</g>
</svg>
